<svg width="512" height="512" viewBox="0 0 512 512" fill="none" xmlns="http://www.w3.org/2000/svg">
  <rect width="512" height="512" rx="256" fill="white"/>
  <circle cx="256" cy="256" r="200" stroke="#808080" stroke-width="12" fill="none"/>
  <g transform="translate(110, 210) scale(0.9)">
    <path d="M10 10H100L10 90H100" stroke="#0B1120" stroke-width="18" stroke-linecap="round" stroke-linejoin="round" fill="none"/>
    <path d="M120 10H200V35H135V45H190V65H135V75H205V90H120V10Z" fill="#0B1120"/>
    <path d="M220 10H280C295 10 305 18 305 32C305 45 295 52 285 55L310 90H285L265 60H238V90H220V10ZM238 28V45H275C282 45 288 42 288 36C288 30 282 28 275 28H238Z" fill="#0B1120"/>
    <circle cx="360" cy="50" r="38" stroke="#00AEEF" stroke-width="12" fill="none"/>
    <circle cx="360" cy="50" r="12" fill="#00AEEF"/>
    <path d="M330 50H390" stroke="#00AEEF" stroke-width="4"/>
  </g>
</svg>